<svg width="160" height="32" viewBox="0 0 160 32" fill="none" xmlns="http://www.w3.org/2000/svg">
  <!-- Lion mark (28x28, centered vertically at y=2) -->
  <!-- Gold outer hexagon -->
  <path d="M14 2L25.2 8.4V19.6L14 26L2.8 19.6V8.4Z" fill="#D4A827"/>
  <!-- Dark inner hexagon -->
  <path d="M14 5L22.2 9.7V20.3L14 25L5.8 20.3V9.7Z" fill="#0D0D0D"/>
  <!-- Gold lion mane -->
  <path d="M14 6.5L20.5 10.3V19.7L14 23.5L7.5 19.7V10.3Z" fill="#D4A827"/>
  <!-- Dark face -->
  <path d="M14 8.5L19 11.8V18.8L14 22L9 18.8V11.8Z" fill="#0D0D0D"/>
  <!-- Gold brow -->
  <path d="M12.2 11.8L14 10.3L15.8 11.8L15.4 12.2L14 11.2L12.6 12.2Z" fill="#D4A827"/>
  <!-- Gold cheeks -->
  <path d="M9 14.5L11 12.5V17L9 17.5Z" fill="#D4A827"/>
  <path d="M19 14.5L17 12.5V17L19 17.5Z" fill="#D4A827"/>
  <!-- Gold muzzle -->
  <path d="M11.5 17L14 15.5L16.5 17L14 20Z" fill="#D4A827" opacity="0.85"/>
  <!-- Eyes -->
  <ellipse cx="12.4" cy="13.4" rx="1" ry="0.9" fill="#0D0D0D"/>
  <ellipse cx="15.6" cy="13.4" rx="1" ry="0.9" fill="#0D0D0D"/>
  <!-- Nose -->
  <path d="M13.4 16.5L14 17.3L14.6 16.5H13.4Z" fill="#0D0D0D"/>

  <!-- Wordmark: "Foundri" white + "OS" gold -->
  <text x="34" y="21" font-family="Satoshi, 'Space Grotesk', system-ui, sans-serif" font-size="17" font-weight="700" fill="#E4E4E7" letter-spacing="-0.02em">Foundri<tspan fill="#D4A827">OS</tspan></text>
</svg>
